# xmcd
#
# Track frame offsets: 
#        150
#        26508
#        49940
#        69619
#        87092
#        105948
#
# Disc length: 1763 seconds
#
# Revision: 0
# Processed by: cddbd v1.5.2PL0 Copyright (c) Steve Scherf et al.
# Submitted via: ExactAudioCopy v0.99pb4
#
DISCID=4206e106
DTITLE=Midnight Maniacs - Ready For Take Off
DYEAR=2000
DGENRE=Blues
TTITLE0=Hurt Me So
TTITLE1=Hard Workin' Woman
TTITLE2=Out On The Streets
TTITLE3=Corina
TTITLE4=Guitar Man
TTITLE5=Sandra
EXTD=
EXTT0=
EXTT1=
EXTT2=
EXTT3=
EXTT4=
EXTT5=
PLAYORDER=
